<svg width="217" height="30" viewBox="0 0 217 30" fill="none" xmlns="http://www.w3.org/2000/svg">
    <g clip-path="url(#clip0_1_19)">
        <path d="M201.996 9.99787C199.242 9.99787 196.994 12.2456 196.994 15C196.994 17.7544 199.242 20.0021 201.996 20.0021C204.751 20.0021 206.998 17.7544 206.998 15C206.998 12.2456 204.751 9.99787 201.996 9.99787ZM216.999 15C216.999 12.9286 217.018 10.876 216.901 8.80832C216.785 6.40669 216.237 4.27525 214.481 2.51907C212.721 0.759128 210.593 0.215011 208.192 0.098682C206.12 -0.0176466 204.068 0.00111617 202 0.00111617C199.929 0.00111617 197.876 -0.0176466 195.808 0.098682C193.407 0.215011 191.275 0.762881 189.519 2.51907C187.759 4.27901 187.215 6.40669 187.099 8.80832C186.982 10.8797 187.001 12.9324 187.001 15C187.001 17.0676 186.982 19.124 187.099 21.1917C187.215 23.5933 187.763 25.7247 189.519 27.4809C191.279 29.2409 193.407 29.785 195.808 29.9013C197.88 30.0176 199.932 29.9989 202 29.9989C204.071 29.9989 206.124 30.0176 208.192 29.9013C210.593 29.785 212.725 29.2371 214.481 27.4809C216.241 25.721 216.785 23.5933 216.901 21.1917C217.021 19.124 216.999 17.0714 216.999 15ZM201.996 22.6964C197.737 22.6964 194.3 19.2591 194.3 15C194.3 10.7409 197.737 7.30355 201.996 7.30355C206.255 7.30355 209.693 10.7409 209.693 15C209.693 19.2591 206.255 22.6964 201.996 22.6964ZM210.008 8.7858C209.013 8.7858 208.21 7.98276 208.21 6.98834C208.21 5.99392 209.013 5.19087 210.008 5.19087C211.002 5.19087 211.805 5.99392 211.805 6.98834C211.806 7.22447 211.759 7.45834 211.669 7.67655C211.579 7.89476 211.447 8.09303 211.28 8.26C211.113 8.42697 210.914 8.55936 210.696 8.64958C210.478 8.73981 210.244 8.7861 210.008 8.7858Z" fill="#90181C"/>
    </g>
    <path d="M157 5.66973C155.897 6.15858 154.712 6.48889 153.466 6.63819C154.751 5.86896 155.713 4.65828 156.172 3.23205C154.964 3.94946 153.642 4.45445 152.263 4.72504C151.336 3.73526 150.109 3.07921 148.77 2.85876C147.432 2.63831 146.059 2.86579 144.863 3.50588C143.668 4.14596 142.717 5.16285 142.159 6.39866C141.6 7.63447 141.466 9.02005 141.775 10.3403C139.328 10.2174 136.934 9.58131 134.748 8.47327C132.563 7.36522 130.635 5.80999 129.089 3.90852C128.56 4.82017 128.256 5.87716 128.256 7.00286C128.256 8.01624 128.505 9.0141 128.983 9.9079C129.461 10.8017 130.151 11.5638 130.994 12.1266C130.017 12.0955 129.061 11.8314 128.206 11.3563V11.4356C128.206 12.8569 128.698 14.2345 129.598 15.3346C130.498 16.4347 131.751 17.1895 133.144 17.471C132.237 17.7164 131.287 17.7525 130.364 17.5767C130.757 18.7997 131.523 19.8691 132.554 20.6353C133.585 21.4015 134.83 21.826 136.114 21.8496C133.934 23.5611 131.241 24.4895 128.469 24.4855C127.978 24.4856 127.488 24.4569 127 24.3996C129.814 26.2086 133.089 27.1687 136.434 27.1649C147.757 27.1649 153.947 17.7868 153.947 9.65326C153.947 9.38901 153.94 9.12212 153.928 8.85787C155.132 7.98714 156.171 6.90891 156.997 5.67369L157 5.66973Z" fill="#90181C"/>
    <g clip-path="url(#clip1_1_19)">
        <path d="M20.4609 8.84933C19.4695 7.96723 18.279 7.3386 16.9915 7.01729C15.7039 6.69599 14.3577 6.69159 13.0681 7.00447C13.2958 7.30915 14.7924 9.34487 16.1417 11.8259C19.0714 10.7277 20.3103 9.06027 20.4609 8.84933ZM16.4062 16.3661C11.7623 17.9833 10.0915 21.2076 9.9442 21.5089C11.3404 22.5971 13.0949 23.2467 15 23.2467C16.1417 23.2467 17.2299 23.0156 18.2176 22.5938C18.0938 21.8705 17.6183 19.3527 16.4598 16.346L16.4062 16.3661ZM18.0033 15.9676C19.0815 18.9275 19.5201 21.3382 19.6038 21.8404C21.452 20.5915 22.7679 18.6127 23.1328 16.3192C22.8516 16.2321 20.5848 15.5558 18.0033 15.9676ZM15 0C6.71652 0 0 6.71652 0 15C0 23.2835 6.71652 30 15 30C23.2835 30 30 23.2835 30 15C30 6.71652 23.2835 0 15 0ZM15 24.6429C9.68304 24.6429 5.35714 20.317 5.35714 15C5.35714 9.68304 9.68304 5.35714 15 5.35714C20.317 5.35714 24.6429 9.68304 24.6429 15C24.6429 20.317 20.317 24.6429 15 24.6429ZM16.7779 13.0513C16.9688 13.4431 17.1529 13.8415 17.3237 14.2433C17.3839 14.3839 17.4442 14.5246 17.5011 14.6685C20.24 14.3237 22.9654 14.8761 23.2366 14.933C23.2199 12.9877 22.5234 11.2031 21.3783 9.80022C21.2009 10.0379 19.8214 11.8092 16.7779 13.0513ZM14.5513 12.3214C13.1853 9.89397 11.7154 7.85491 11.4978 7.55692C9.1942 8.64509 7.46987 10.7679 6.9375 13.3225C7.3058 13.3292 10.7009 13.346 14.5513 12.3214ZM15.5759 15.0837C15.683 15.0502 15.7902 15.0167 15.9007 14.9866C15.6931 14.5179 15.4688 14.0491 15.2344 13.5904C11.1228 14.8225 7.12835 14.769 6.77009 14.7623C6.76674 14.846 6.76674 14.9297 6.76674 15.0134C6.76674 17.1295 7.56696 19.0614 8.88281 20.5212C9.06696 20.1998 11.327 16.4565 15.5759 15.0837Z" fill="#90181C"/>
    </g>
    <g clip-path="url(#clip2_1_19)">
        <path fill-rule="evenodd" clip-rule="evenodd" d="M67 2.50637C67 1.84164 67.2641 1.20413 67.7341 0.7341C68.2041 0.264066 68.8416 3.34134e-06 69.5064 3.34134e-06H94.4909C94.8203 -0.000534684 95.1466 0.0639073 95.4511 0.18964C95.7556 0.315372 96.0323 0.499926 96.2653 0.732735C96.4984 0.965543 96.6833 1.24204 96.8093 1.54638C96.9354 1.85073 97.0002 2.17695 97 2.50637V27.4909C97.0004 27.8204 96.9357 28.1467 96.8099 28.4512C96.684 28.7557 96.4993 29.0324 96.2664 29.2654C96.0335 29.4985 95.7569 29.6833 95.4525 29.8093C95.148 29.9354 94.8218 30.0002 94.4923 30H69.5064C69.1771 30 68.8511 29.9351 68.5469 29.8091C68.2427 29.683 67.9664 29.4983 67.7336 29.2654C67.5009 29.0325 67.3163 28.7561 67.1904 28.4518C67.0645 28.1476 66.9998 27.8215 67 27.4923V2.50637ZM78.8745 11.4382H82.9368V13.4782C83.5232 12.3055 85.0232 11.25 87.2773 11.25C91.5986 11.25 92.6227 13.5859 92.6227 17.8718V25.8109H88.2495V18.8482C88.2495 16.4073 87.6632 15.03 86.1741 15.03C84.1082 15.03 83.2491 16.515 83.2491 18.8482V25.8109H78.8745V11.4382ZM71.3745 25.6241H75.7491V11.25H71.3745V25.6227V25.6241ZM76.375 6.56182C76.3832 6.93637 76.3166 7.3088 76.179 7.65725C76.0413 8.0057 75.8355 8.32314 75.5735 8.59096C75.3115 8.85877 74.9987 9.07156 74.6533 9.21683C74.308 9.3621 73.9371 9.43694 73.5625 9.43694C73.1879 9.43694 72.817 9.3621 72.4717 9.21683C72.1263 9.07156 71.8135 8.85877 71.5515 8.59096C71.2895 8.32314 71.0837 8.0057 70.946 7.65725C70.8084 7.3088 70.7418 6.93637 70.75 6.56182C70.7662 5.82662 71.0696 5.12699 71.5953 4.61276C72.121 4.09852 72.8271 3.81057 73.5625 3.81057C74.2979 3.81057 75.004 4.09852 75.5297 4.61276C76.0554 5.12699 76.3588 5.82662 76.375 6.56182Z" fill="#90181C"/>
    </g>
    <defs>
        <clipPath id="clip0_1_19">
            <rect width="30" height="30" fill="white" transform="translate(187)"/>
        </clipPath>
        <clipPath id="clip1_1_19">
            <rect width="30" height="30" fill="white"/>
        </clipPath>
        <clipPath id="clip2_1_19">
            <rect width="30" height="30" fill="white" transform="translate(67)"/>
        </clipPath>
    </defs>
</svg>
